#!OML:ASF F:\VICON\USERDATA\INSTALL\rory3\rory3.ASF
:FULLY-SPECIFIED
:DEGREES
164
root 1.80264 17.2157 -26.3213 9.09383 -6.91575 4.34072
lowerback -6.29222 -0.630548 -4.53572
upperback -3.92599 -0.615996 -0.44563
thorax -0.484497 -0.239262 2.04933
lowerneck -16.243 -1.21869 -5.27585
upperneck 25.203 -1.16083 3.26841
head 10.8617 -0.645744 1.91055
rclavicle 2.54693e-015 5.56597e-015
rhumerus -40.5081 6.44575 -90.9396
rradius 36.7415
rwrist 2.43819
rhand -23.7932 -52.3249
rfingers 7.12502
rthumb 2.67707 -82.2878
lclavicle 2.54693e-015 5.56597e-015
lhumerus -25.3089 -16.2515 88.7385
lradius 35.9561
lwrist 11.0516
lhand -34.3737 -28.8289
lfingers 7.12502
lthumb -7.54032 1.01665
rfemur -47.1444 7.06223 15.4098
rtibia 47.6018
rfoot -10.1252 -13.8659
rtoes -8.9712
lfemur -15.3736 -4.75013 -31.9111
ltibia 30.1807
lfoot -22.0617 8.00669
ltoes 4.56751
165
root 1.79403 17.213 -26.1998 9.06142 -6.81605 4.48165
lowerback -6.68635 -0.717472 -4.78466
upperback -3.75922 -0.690448 -0.427157
thorax -0.0866867 -0.283554 2.19908
lowerneck -15.8615 -1.19358 -5.33486
upperneck 24.8644 -1.1382 3.3178
head 10.6611 -0.634411 1.93644
rclavicle -3.64956e-015 1.72943e-014
rhumerus -40.2749 6.4314 -90.8653
rradius 36.2352
rwrist 3.10929
rhand -24.561 -50.5627
rfingers 7.12502
rthumb 1.93551 -80.5336
lclavicle -3.64956e-015 1.72943e-014
lhumerus -24.9023 -16.1644 88.724
lradius 36.5771
lwrist 10.606
lhand -34.1484 -28.4594
lfingers 7.12502
lthumb -7.32279 1.39392
rfemur -46.89 7.11905 15.2213
rtibia 44.9336
rfoot -10.7278 -13.4868
rtoes -6.8353
lfemur -14.5035 -4.70964 -32.0894
ltibia 29.4811
lfoot -22.129 7.9928
ltoes 4.58366
166
root 1.78586 17.218 -26.0811 9.07867 -6.61611 4.5862
lowerback -6.18477 -0.847589 -4.97845
upperback -4.09388 -0.894566 -0.343833
thorax -0.693607 -0.362365 2.38817
lowerneck -15.8376 -1.12952 -5.48167
upperneck 25.2104 -1.01152 3.308
head 10.7791 -0.595938 1.98004
rclavicle 1.20513e-014 4.57205e-015
rhumerus -40.847 6.78028 -90.9701
rradius 36.211
rwrist 3.02234
rhand -25.6701 -49.2458
rfingers 7.12502
rthumb 0.864387 -79.2238
lclavicle 1.20513e-014 4.57205e-015
lhumerus -25.0625 -15.9334 88.9138
lradius 37.0614
lwrist 10.3302
lhand -33.5259 -28.1958
lfingers 7.12502
lthumb -6.72188 1.67746
rfemur -46.7087 7.10562 15.0367
rtibia 42.2821
rfoot -10.1875 -13.1872
rtoes -8.30397
lfemur -13.6654 -4.70802 -32.206
ltibia 28.7505
lfoot -22.1981 7.81553
ltoes 4.51755
167
root 1.77663 17.2236 -25.9671 9.14743 -6.44026 4.75071
lowerback -6.74655 -0.934848 -5.18125
upperback -3.75204 -0.953118 -0.402789
thorax -0.0223523 -0.410604 2.42799
lowerneck -16.1656 -1.19803 -5.29366
upperneck 25.1148 -1.08843 3.11924
head 10.8101 -0.632553 1.86824
rclavicle -6.41391e-015 9.93923e-016
rhumerus -40.2252 6.65067 -90.8934
rradius 36.0774
rwrist 3.29346
rhand -26.3347 -48.1078
rfingers 7.12502
rthumb 0.222475 -78.0875
lclavicle -6.41391e-015 9.93923e-016
lhumerus -24.0721 -16.3575 88.8307
lradius 37.21
lwrist 10.4294
lhand -33.1942 -27.3591
lfingers 7.12502
lthumb -6.40172 2.52413
rfemur -46.6467 7.0669 14.7673
rtibia 39.7009
rfoot -9.72896 -12.9013
rtoes -8.6795
lfemur -12.8518 -4.75732 -32.3806
ltibia 27.8999
lfoot -22.1176 7.61926
ltoes 4.16634
168
root 1.76777 17.2268 -25.8526 9.20434 -6.15392 4.91435
lowerback -5.99146 -1.11482 -5.44996
upperback -4.14934 -1.24169 -0.302029
thorax -0.824165 -0.522357 2.67909
lowerneck -16.4551 -1.186 -5.4267
upperneck 25.6774 -0.985577 2.97714
head 11.0731 -0.621193 1.86139
rclavicle 3.721e-015 -1.15295e-014
rhumerus -40.6151 7.04397 -90.935
rradius 35.9855
rwrist 3.49063
rhand -26.0553 -48.0556
rfingers 7.12502
rthumb 0.492356 -78.0347
lclavicle 3.721e-015 -1.15295e-014
lhumerus -24.2122 -16.3388 89.1487
lradius 37.4236
lwrist 10.4631
lhand -34.5426 -30.4051
lfingers 7.12502
lthumb -7.70328 -0.56537
rfemur -46.5071 6.94531 14.5299
rtibia 37.1808
rfoot -9.32792 -12.7579
rtoes -9.27719
lfemur -11.9888 -4.61966 -32.5198
ltibia 26.9889
lfoot -21.9895 7.16727
ltoes 3.86047
169
root 1.75878 17.2361 -25.7319 9.2531 -5.45243 5.07709
lowerback -6.56722 -1.45497 -5.58808
upperback -4.20187 -1.65053 -0.276814
thorax -0.520747 -0.73097 2.74693
lowerneck -15.0106 -1.07621 -5.6455
upperneck 25.0766 -0.880043 3.08409
head 10.5626 -0.583542 1.94125
rclavicle -2.82647e-015 1.09332e-014
rhumerus -41.0486 7.42697 -91.0866
rradius 35.8488
rwrist 3.02507
rhand -25.8057 -47.9055
rfingers 7.12502
rthumb 0.733363 -77.884
lclavicle -2.82647e-015 1.09332e-014
lhumerus -24.3867 -16.5357 89.3948
lradius 37.8635
lwrist 11.0338
lhand -34.7698 -29.0374
lfingers 7.12502
lthumb -7.92257 0.794131
rfemur -46.2142 6.64609 14.2449
rtibia 34.7385
rfoot -9.3755 -12.6956
rtoes -8.70496
lfemur -11.1086 -4.5155 -32.5606
ltibia 26.1519
lfoot -21.9917 6.319
ltoes 3.99465
